<svg width="60" height="35" viewBox="0 0 60 35" fill="none" xmlns="http://www.w3.org/2000/svg">
<path d="M54 0.163574H6C2.6863 0.163574 0 2.84986 0 6.16357V28.1635C0 31.4772 2.6863 34.1635 6 34.1635H54C57.314 34.1635 60 31.4772 60 28.1635V6.16357C60 2.84986 57.314 0.163574 54 0.163574Z" fill="#666666"/>
<path d="M15.3894 15.6496C15.3894 15.2851 15.6917 15.1449 16.192 15.1449C16.91 15.1449 17.817 15.3598 18.534 15.743V13.5468C17.751 13.2383 16.976 13.1168 16.192 13.1168C14.275 13.1168 13 14.1075 13 15.7617C13 18.3411 16.589 17.9299 16.589 19.042C16.589 19.472 16.211 19.6121 15.6822 19.6121C14.8983 19.6121 13.8972 19.2944 13.1039 18.8645V21.0888C13.9822 21.4626 14.87 21.6215 15.6822 21.6215C17.647 21.6215 18.997 20.6589 18.997 18.986C18.988 16.2009 15.3894 16.6963 15.3894 15.6496ZM21.774 11.2477L19.469 11.7337L19.46 19.2197C19.46 20.6028 20.508 21.6215 21.906 21.6215C22.681 21.6215 23.247 21.4813 23.559 21.3131V19.4159C23.257 19.5374 21.764 19.9673 21.764 18.5841V15.2664H23.559V13.2757H21.764L21.774 11.2477ZM26.496 13.9673L26.345 13.2757H24.305V21.4533H26.666V15.9112C27.223 15.1916 28.168 15.3224 28.461 15.4252V13.2757C28.158 13.1636 27.053 12.958 26.496 13.9673ZM29.037 13.2757H31.407V21.4533H29.037V13.2757ZM29.037 12.5654L31.407 12.0607V10.1636L29.037 10.6589V12.5654ZM36.337 13.1168C35.412 13.1168 34.817 13.5468 34.486 13.8458L34.363 13.2664H32.286V24.1636L34.647 23.6682L34.656 21.0233C34.996 21.2664 35.497 21.6121 36.328 21.6121C38.018 21.6121 39.558 20.2663 39.558 17.3038C39.548 14.5935 37.99 13.1168 36.337 13.1168ZM35.771 19.5561C35.213 19.5561 34.883 19.3598 34.656 19.1169L34.647 15.6496C34.892 15.3785 35.232 15.1916 35.771 15.1916C36.63 15.1916 37.225 16.1448 37.225 17.3692C37.225 18.6215 36.639 19.5561 35.771 19.5561ZM47 17.3972C47 15.0047 45.829 13.1168 43.591 13.1168C41.343 13.1168 39.983 15.0047 39.983 17.3785C39.983 20.1916 41.588 21.6121 43.893 21.6121C45.017 21.6121 45.867 21.3598 46.509 21.0047V19.1356C45.867 19.4533 45.13 19.6495 44.195 19.6495C43.279 19.6495 42.467 19.3318 42.363 18.229H46.981C46.981 18.1075 47 17.6215 47 17.3972ZM42.334 16.5094C42.334 15.4533 42.986 15.0141 43.581 15.0141C44.157 15.0141 44.771 15.4533 44.771 16.5094H42.334Z" fill="white"/>
</svg>
