<svg width="16" height="15" viewBox="0 0 16 15" fill="none" xmlns="http://www.w3.org/2000/svg">
<path d="M3.95528 14.4806V5.26452H0.844546V14.4806H3.95528ZM2.39991 4.00623C3.48406 4.00623 4.1593 3.29855 4.1593 2.41416C4.13967 1.51013 3.48406 0.822083 2.4204 0.822083C1.35589 0.822083 0.660156 1.51013 0.660156 2.41416C0.660156 3.29855 1.3354 4.00623 2.37942 4.00623H2.39991ZM5.67625 14.4806H8.78699V9.33391C8.78699 9.05818 8.80747 8.7833 8.88942 8.58696C9.11479 8.03635 9.62613 7.46611 10.4858 7.46611C11.6117 7.46611 12.0616 8.31123 12.0616 9.55074V14.4806H15.1724V9.19647C15.1724 6.36574 13.6375 5.04855 11.5913 5.04855C9.91296 5.04855 9.17625 5.9722 8.7665 6.6005H8.78699V5.26452H5.67625C5.71723 6.12928 5.67625 14.4806 5.67625 14.4806Z" fill="#666666"/>
</svg>
