<svg width="15" height="15" viewBox="0 0 15 15" fill="none" xmlns="http://www.w3.org/2000/svg">
<path d="M0.658203 4.80617C0.658203 2.60544 2.4415 0.822144 4.64223 0.822144H10.3327C12.5334 0.822144 14.3167 2.60544 14.3167 4.80617V10.4967C14.3167 12.6974 12.5334 14.4807 10.3327 14.4807H4.64223C2.4415 14.4807 0.658203 12.6974 0.658203 10.4967V4.80617ZM10.3327 3.66739C10.3233 4.08056 10.5384 4.46556 10.8944 4.6747C11.2504 4.88385 11.6909 4.88385 12.0469 4.6747C12.4028 4.46641 12.618 4.08056 12.6086 3.66824C12.5949 3.04934 12.0895 2.55507 11.4715 2.55507C10.8526 2.55507 10.3472 3.04934 10.3327 3.66739ZM4.64223 7.65141C4.64223 9.223 5.91674 10.4975 7.48833 10.4967C9.05991 10.4967 10.3336 9.22214 10.3336 7.65056C10.3336 6.07897 9.05906 4.80531 7.48747 4.80531C5.91589 4.80531 4.64137 6.07983 4.64223 7.65141Z" fill="#666666"/>
</svg>
