<svg width="16" height="16" viewBox="0 0 16 16" fill="none" xmlns="http://www.w3.org/2000/svg">
<path d="M7.5 13C10.5376 13 13 10.5376 13 7.5C13 4.46243 10.5376 2 7.5 2C4.46243 2 2 4.46243 2 7.5C2 10.5376 4.46243 13 7.5 13Z" stroke="#666666" stroke-width="1.33333" stroke-linecap="round" stroke-linejoin="round"/>
<path d="M13.5286 14.4714C13.7889 14.7318 14.2111 14.7318 14.4714 14.4714C14.7318 14.2111 14.7318 13.7889 14.4714 13.5286L13.5286 14.4714ZM12.4714 11.5286L12 11.0572L11.0572 12L11.5286 12.4714L12.4714 11.5286ZM14.4714 13.5286L12.4714 11.5286L11.5286 12.4714L13.5286 14.4714L14.4714 13.5286Z" fill="#666666"/>
</svg>
