<svg width="236" height="44" viewBox="0 0 236 44" fill="none" xmlns="http://www.w3.org/2000/svg">
<g clip-path="url(#clip0_721_52089)">
<path d="M-0.0253906 18.8798V25.7581L13.9972 15.4371V8.82788L-0.0253906 18.8798Z" fill="#00AE1D"/>
<path d="M13.998 8.82788L14.0009 15.4371L22.6117 21.0718V14.466L13.998 8.82788Z" fill="#00FF27"/>
<path d="M37.8745 2.9209L22.6113 14.4661V21.0719L37.8745 9.53541V2.9209Z" fill="#00AE1D"/>
<path d="M75.7775 18.8798V25.7581L61.752 15.4371V8.82788L75.7775 18.8798Z" fill="#00FF27"/>
<path d="M61.7496 8.82788L61.7468 15.4371L53.1387 21.0718V14.466L61.7496 8.82788Z" fill="#00AE1D"/>
<path d="M37.873 2.9209L53.1362 14.4661V21.0719L37.873 9.53541V2.9209Z" fill="#00FF27"/>
<path d="M-0.0253906 27.8365V34.7165L13.9972 24.3938V17.7864L-0.0253906 27.8365Z" fill="#5D00AD"/>
<path d="M13.998 17.7864L14.0009 24.3938L22.6117 30.0285V23.4227L13.998 17.7864Z" fill="#7C00FF"/>
<path d="M37.8745 11.8794L22.6113 23.4228V30.0287L37.8745 18.4939V11.8794Z" fill="#5D00AD"/>
<path d="M75.7775 27.8365V34.7165L61.752 24.3938V17.7864L75.7775 27.8365Z" fill="#7C00FF"/>
<path d="M61.7496 17.7864L61.7468 24.3938L53.1387 30.0285V23.4227L61.7496 17.7864Z" fill="#5D00AD"/>
<path d="M37.873 11.8794L53.1362 23.4228V30.0287L37.873 18.4939V11.8794Z" fill="#7C00FF"/>
<path d="M-0.0253906 36.7953V43.6735L13.9972 33.3526V26.7434L-0.0253906 36.7953Z" fill="#AF3F00"/>
<path d="M13.998 26.7434L14.0009 33.3526L22.6117 38.9872V32.3815L13.998 26.7434Z" fill="#FF5400"/>
<path d="M37.8745 20.8362L22.6113 32.3814V38.9872L37.8745 27.4507V20.8362Z" fill="#AF3F00"/>
<path d="M75.7775 36.7953V43.6735L61.752 33.3526V26.7434L75.7775 36.7953Z" fill="#FF5400"/>
<path d="M61.7496 26.7434L61.7468 33.3526L53.1387 38.9872V32.3815L61.7496 26.7434Z" fill="#AF3F00"/>
<path d="M37.873 20.8362L53.1362 32.3814V38.9872L37.873 27.4507V20.8362Z" fill="#FF5400"/>
<path d="M119.252 27.3761H102.531L99.0338 33.6818H91.2373L107.544 6.59717H114.273L130.606 33.6818H122.78L119.252 27.3761ZM104.638 23.5804H117.148L110.891 12.3443L104.638 23.5804Z" fill="#0E0E0E"/>
<path d="M174.071 23.8232C174.071 26.936 172.946 29.4193 170.692 31.273C168.439 33.1269 165.414 34.0549 161.621 34.0549C158.103 34.0549 155.286 33.3297 153.173 31.8777V40.7624H145.968V13.5552H152.608L152.904 15.6023C155.02 13.9895 157.896 13.1841 161.53 13.1841C165.442 13.1841 168.512 14.0986 170.735 15.9275C172.958 17.7565 174.071 20.2954 174.071 23.5458V23.8232ZM166.896 23.431C166.896 21.4222 166.259 19.8285 164.985 18.65C163.71 17.4715 161.887 16.8822 159.515 16.8822C156.569 16.8822 154.456 17.6456 153.17 19.1704V28.0991C154.475 29.6622 156.609 30.4428 159.573 30.4428C161.865 30.4428 163.658 29.863 164.954 28.7037C166.247 27.5462 166.896 25.7881 166.896 23.431Z" fill="#0E0E0E"/>
<path d="M196.719 33.6818C196.402 33.2973 196.127 32.6716 195.889 31.803C193.597 33.3029 190.791 34.053 187.472 34.053C184.249 34.053 181.619 33.4771 179.586 32.3235C177.55 31.1697 176.534 29.7445 176.534 28.0455C176.534 25.9009 177.803 24.2537 180.343 23.1076C182.882 21.9598 186.513 21.3877 191.237 21.3877H195.655V20.0677C195.655 19.027 195.192 18.1927 194.261 17.5652C193.33 16.9397 191.92 16.6259 190.023 16.6259C188.382 16.6259 187.038 16.8841 185.992 17.3969C184.944 17.9115 184.423 18.5659 184.423 19.3598H177.217C177.217 18.2559 177.8 17.2247 178.967 16.2624C180.131 15.302 181.721 14.5482 183.724 14.0029C185.729 13.4576 187.969 13.1841 190.438 13.1841C194.195 13.1841 197.188 13.7771 199.421 14.9614C201.653 16.1457 202.799 17.8102 202.859 19.9567V29.0347C202.859 30.8445 203.265 32.2909 204.077 33.368V33.6837H196.719V33.6818ZM188.803 30.4255C190.227 30.4255 191.565 30.2093 192.823 29.775C194.076 29.3407 195.02 28.7592 195.651 28.0265V24.2326H191.767C189.099 24.2326 187.092 24.5234 185.748 25.107C184.404 25.6904 183.734 26.5151 183.734 27.5807C183.734 28.4493 184.193 29.1399 185.112 29.6545C186.031 30.1692 187.264 30.4255 188.803 30.4255Z" fill="#0E0E0E"/>
<path d="M224.304 17.6838C223.356 17.5843 222.378 17.5346 221.368 17.5346C218.066 17.5346 215.844 18.3285 214.696 19.9165V33.6817H207.491V13.5552H214.371L214.547 15.8051C216.286 14.0564 218.697 13.1821 221.78 13.1821C222.807 13.1821 223.658 13.2683 224.328 13.4423L224.304 17.6838Z" fill="#0E0E0E"/>
<path d="M234.665 33.682H227.46V13.5554H234.665V33.682Z" fill="#0E0E0E"/>
<path d="M141.305 6.53003H134.101V33.6816H141.305V6.53003Z" fill="#0E0E0E"/>
<path d="M234.684 6.53003H227.464V11.0604H234.684V6.53003Z" fill="#0E0E0E"/>
</g>
<defs>
<clipPath id="clip0_721_52089">
<rect width="234.735" height="43.1978" fill="white" transform="translate(0.560547 0.48291)"/>
</clipPath>
</defs>
</svg>
