<svg width="203" height="44" viewBox="0 0 203 44" fill="none" xmlns="http://www.w3.org/2000/svg">
<path d="M58.6215 15.0179V33.3838H53.5138V15.0179H47.1021V10.6166H65.0876V15.0179H58.6215ZM68.7825 10.6166H73.8901V33.3838H68.7825V10.6166ZM89.9195 28.8738C92.419 28.8738 94.4838 27.8957 96.0596 25.8853L99.3198 29.2542C96.7116 32.1884 93.6688 33.6011 90.1912 33.6011C86.6593 33.6011 83.7794 32.5144 81.4973 30.2866C79.2151 28.0587 78.0741 25.2876 78.0741 21.9187C78.0741 18.5498 79.2151 15.7243 81.5516 13.4421C83.8881 11.16 86.7136 10.0732 90.0282 10.0732C93.7774 10.0732 96.8746 11.486 99.4285 14.3659L96.2769 17.9521C94.6468 15.9416 92.6907 14.9636 90.2999 14.9636C88.3981 14.9636 86.768 15.5613 85.4096 16.811C84.0511 18.0608 83.3991 19.7452 83.3991 21.8643C83.3991 23.9835 84.0511 25.6679 85.3009 26.972C86.5506 28.2761 88.1264 28.8738 89.9195 28.8738ZM103.341 10.6166H108.448V19.9626L117.034 10.6166H123.337L114.262 20.6689C115.023 21.7557 116.49 23.7661 118.609 26.7547C120.729 29.7432 122.304 31.9167 123.337 33.3838H117.414L110.731 24.3638L108.448 26.9177V33.3838H103.341V10.6166ZM146.865 19.0388L140.724 31.482H137.682L131.542 19.0388V33.3838H126.434V10.6166H133.335L139.203 23.1141L145.126 10.6166H151.972V33.3838H146.865V19.0388ZM157.569 10.6166H162.677V33.3838H157.569V10.6166ZM168.273 33.3838V10.6166H173.381V28.8738H183.107V33.3838H168.273ZM186.802 33.3838V10.6166H191.91V28.8738H201.636V33.3838H186.802Z" fill="#0E0E0E"/>
<path d="M10.2076 17.6804C10.2076 17.2457 10.5336 16.7023 10.9139 16.485L18.4124 12.138C18.7928 11.9207 19.3905 11.9207 19.7709 12.138L26.3456 15.9416L35.5829 10.6166C35.5285 10.5623 35.4742 10.5079 35.3655 10.4536L20.7489 1.81402C19.8252 1.27065 18.3038 1.27065 17.4344 1.81402L2.81774 10.4536C1.89402 10.997 1.1333 12.3554 1.1333 13.4421V30.4496L10.2076 25.2332V17.6804ZM27.9214 18.8215V26.3743C27.9214 26.809 27.5954 27.3524 27.215 27.5697L19.7165 31.9167C19.3362 32.134 18.7385 32.134 18.3581 31.9167L11.7833 28.1131L2.54606 33.4381C2.6004 33.4924 2.65473 33.5468 2.76341 33.6011L17.38 42.1863C18.3038 42.7297 19.8252 42.7297 20.6946 42.1863L35.3655 33.6011C36.2893 33.0577 37.05 31.6993 37.05 30.6126V13.6051L27.9214 18.8215Z" fill="#CC0000"/>
</svg>
