<svg width="60" height="35" viewBox="0 0 60 35" fill="none" xmlns="http://www.w3.org/2000/svg">
<path d="M54 0.163574H6C2.686 0.163574 0 2.84986 0 6.16357V28.1635C0 31.4772 2.686 34.1635 6 34.1635H54C57.314 34.1635 60 31.4772 60 28.1635V6.16357C60 2.84986 57.314 0.163574 54 0.163574Z" fill="#666666"/>
<path d="M26.5 25.6636V10.6636H34.5V25.6636H26.5Z" fill="#C4C4C4" stroke="#C4C4C4"/>
<path d="M26.2345 18.1636C26.2345 14.9694 27.7197 12.1344 30 10.3027C28.3218 8.96941 26.2055 8.16357 23.8962 8.16357C18.4256 8.16357 14 12.6361 14 18.1636C14 23.6911 18.4256 28.1636 23.8962 28.1636C26.2055 28.1636 28.3218 27.3578 30 26.0244C27.7167 24.2186 26.2345 21.3577 26.2345 18.1636Z" fill="#444444"/>
<path d="M46 18.1636C46 23.6911 41.5744 28.1636 36.1048 28.1636C33.7955 28.1636 31.6782 27.3578 30 26.0244C32.3093 24.1895 33.7665 21.3577 33.7665 18.1636C33.7665 14.9694 32.2803 12.1344 30 10.3027C31.6752 8.96941 33.7915 8.16357 36.1008 8.16357C41.5745 8.16357 46 12.6652 46 18.1636Z" fill="white"/>
</svg>
