<svg width="60" height="35" viewBox="0 0 60 35" fill="none" xmlns="http://www.w3.org/2000/svg">
<mask id="mask0_2025_5285" style="mask-type:luminance" maskUnits="userSpaceOnUse" x="0" y="0" width="60" height="35">
<path d="M60 0.163574H0V34.1636H60V0.163574Z" fill="white"/>
</mask>
<g mask="url(#mask0_2025_5285)">
<mask id="mask1_2025_5285" style="mask-type:luminance" maskUnits="userSpaceOnUse" x="0" y="0" width="60" height="35">
<path d="M60 0.163574H0V34.1635H60V0.163574Z" fill="white"/>
</mask>
<g mask="url(#mask1_2025_5285)">
<path d="M54 0.163574H6C2.68629 0.163574 0 2.84986 0 6.16357V28.1635C0 31.4772 2.68629 34.1635 6 34.1635H54C57.3137 34.1635 60 31.4772 60 28.1635V6.16357C60 2.84986 57.3137 0.163574 54 0.163574Z" fill="#666666"/>
<path d="M22.45 19.7733H23.1922L23.8948 15.3843H23.1553L23.135 15.5026C23.1239 15.5679 23.103 15.6535 23.0588 15.7381C23.0225 15.8075 22.9157 15.9792 22.6882 16.0308C22.4324 16.0889 22.2489 15.95 22.1736 15.8726C22.0966 15.7934 22.0511 15.7034 22.0241 15.6403L22.0236 15.639C21.9197 15.394 21.6219 15.1769 20.8949 15.1939L20.8935 15.194C19.3275 15.2262 18.2487 16.3938 18.1303 17.9797C18.0472 19.0993 18.8376 19.9326 19.8558 19.9326C20.2858 19.9326 20.5618 19.8699 20.7718 19.7785L22.45 19.7733ZM22.45 19.7733L22.4541 19.7425L22.4544 19.7402C22.4549 19.7359 22.4555 19.7311 22.4561 19.7258L22.5124 19.6746L22.4599 19.6351C22.4572 19.536 22.4303 19.3943 22.3161 19.2695C22.1988 19.1412 22.0607 19.1023 21.9493 19.0965C22.433 18.7613 22.788 18.2419 22.8759 17.6503C23.0379 16.5595 22.2349 15.6608 21.1373 15.6608C20.0949 15.6608 19.1293 16.4721 18.9761 17.5034C18.8141 18.5942 19.6169 19.4931 20.7145 19.4931L22.45 19.7733ZM25.8458 15.3693L27.2817 19.5543L27.3648 19.7963L27.217 20.0053L26.0463 21.6608H26.8418H26.8505L31.2588 15.3674H30.4744C30.4639 15.3808 30.4505 15.3992 30.4326 15.425L25.8458 15.3693ZM25.8458 15.3693H26.7511H25.8458ZM22.4096 20.0773C22.4095 20.0773 22.4096 20.0763 22.4098 20.074L22.4096 20.0773ZM12.792 17.9889L12.5127 19.7564H11.5284L12.6293 12.7249C12.6293 12.7249 12.6293 12.7248 12.6293 12.7247C12.6331 12.7007 12.637 12.6805 12.6408 12.6636H15.8181H15.8209C16.3565 12.6636 16.8143 12.8092 17.1134 13.0759C17.3936 13.3259 17.5995 13.7396 17.5341 14.437C17.4471 15.3452 17.1649 15.9908 16.7675 16.4054C16.3778 16.812 15.8324 17.0438 15.1121 17.0459H13.6524C13.3773 17.0459 13.1462 17.1743 12.997 17.3945C12.8745 17.5753 12.8222 17.796 12.7921 17.9885C12.792 17.9886 12.792 17.9888 12.792 17.9889ZM11.2578 19.7564C11.2572 19.7564 11.2573 19.7564 11.258 19.7564H11.2578ZM13.1142 15.9209L13.0232 16.4986H13.6081H14.7145H14.724L14.7334 16.4982C15.1961 16.4807 15.618 16.3076 15.9272 15.9641C16.2307 15.6271 16.3842 15.1726 16.4115 14.6618L16.4115 14.6616C16.4322 14.2734 16.31 13.9029 16.0417 13.6297C15.7743 13.3575 15.4036 13.224 15.0042 13.2259C15.0041 13.2259 15.004 13.2259 15.004 13.2259L13.9628 13.2305L13.5372 13.2324L13.4711 13.6528L13.1142 15.9209Z" fill="#C4C4C4" stroke="#C4C4C4"/>
<path fill-rule="evenodd" clip-rule="evenodd" d="M36.8948 12.1654C38.1447 12.1654 39.2979 12.8081 39.1402 14.4099C38.9489 16.3136 37.8731 17.367 36.1757 17.3714H34.6935C34.4802 17.3714 34.377 17.5365 34.3215 17.8746L34.0347 19.6034C33.9916 19.8644 33.8501 19.9931 33.6416 19.9931H32.2618C32.0418 19.9931 31.9653 19.8598 32.0141 19.5616L33.1548 12.6313C33.2113 12.2904 33.3462 12.1636 33.5919 12.1636H36.8948V12.1654ZM34.6477 15.8749H35.7712C36.474 15.8494 36.9407 15.388 36.9876 14.5559C37.0163 14.0419 36.65 13.6738 36.0676 13.6766L35.01 13.6811L34.6477 15.8749ZM42.8915 19.4628C43.0178 19.354 43.146 19.2978 43.1277 19.432L43.0828 19.7529C43.0599 19.9206 43.1297 20.0094 43.2941 20.0094H44.5201C44.7266 20.0094 44.827 19.9305 44.8778 19.6277L45.6332 15.1333C45.6714 14.9076 45.6131 14.797 45.4323 14.797H44.0859C43.9645 14.797 43.9052 14.8614 43.8736 15.0372L43.8239 15.3137C43.7981 15.4578 43.7283 15.4832 43.6632 15.3382C43.4347 14.8251 42.8514 14.5948 42.0376 14.613C40.1471 14.6501 38.8724 16.0108 38.7356 17.7549C38.6305 19.1039 39.6498 20.1636 40.9943 20.1636C41.9697 20.1636 42.4058 19.8916 42.8973 19.4655L42.8915 19.4628ZM41.8655 18.7711C41.0517 18.7711 40.4846 18.1557 40.6023 17.4014C40.7199 16.6471 41.4811 16.0317 42.2948 16.0317C43.1087 16.0317 43.6757 16.6471 43.5581 17.4014C43.4405 18.1557 42.6793 18.7711 41.8655 18.7711ZM47.5199 20.0167H46.1046C46.08 20.0178 46.0555 20.0136 46.0327 20.0046C46.01 19.9956 45.9896 19.9819 45.9731 19.9646C45.9565 19.9473 45.9442 19.9267 45.937 19.9044C45.9298 19.8821 45.928 19.8585 45.9315 19.8353L47.1747 12.3693C47.1866 12.3184 47.2162 12.2728 47.2589 12.2398C47.3016 12.2069 47.3548 12.1886 47.4099 12.1881H48.8252C48.8498 12.187 48.8743 12.1912 48.8971 12.2001C48.9198 12.2091 48.9402 12.2227 48.9567 12.2401C48.9733 12.2574 48.9856 12.278 48.9928 12.3003C48.9999 12.3227 49.0018 12.3462 48.9983 12.3693L47.7551 19.8353C47.7436 19.8866 47.7141 19.9328 47.6714 19.966C47.6285 19.9993 47.5751 20.0178 47.5199 20.0185V20.0167Z" fill="white"/>
</g>
</g>
</svg>
