<svg width="36" height="36" viewBox="0 0 36 36" fill="none" xmlns="http://www.w3.org/2000/svg">
<path d="M36 15.1415C36 13.4846 34.6569 12.1415 33 12.1415H26.8024C25.1455 12.1415 23.8024 10.7983 23.8024 9.14149V3C23.8024 1.34315 22.4592 0 20.8024 0H15.1129C13.4561 0 12.151 1.36353 11.748 2.97064C10.6655 7.28849 7.27697 10.6866 2.97021 11.7741C1.36378 12.1797 0 13.4846 0 15.1415V20.8585C0 22.5154 1.34315 23.8585 3 23.8585H9.11294C10.7698 23.8585 12.1129 25.2016 12.1129 26.8585V33C12.1129 34.6569 13.4561 36 15.1129 36H20.8024C22.4592 36 23.7643 34.636 24.1724 33.0302C25.2704 28.7102 28.7048 25.3107 33.0296 24.2246C34.6365 23.821 36 22.5153 36 20.8585V15.1415Z" fill="#0E0E0E"/>
</svg>
