<svg width="296" height="53" viewBox="0 0 296 53" fill="none" xmlns="http://www.w3.org/2000/svg">
<g clip-path="url(#clip0_721_52117)">
<path d="M35.3832 26.4322C35.2434 30.6157 34.689 31.4553 32.2817 31.4553V36.7179H33.1807C39.184 36.7179 40.6273 33.6863 40.8471 26.9496L41.0918 19.4954H46.7206V36.7179H52.594V14.272H35.7877L35.3832 26.4322Z" fill="#CF1322"/>
<path d="M66.6687 21.0917H62.4285V14.272H56.5552V36.7179H66.7537C73.1564 36.7179 75.444 32.6514 75.444 28.8243C75.4389 23.879 72.2575 21.0917 66.6687 21.0917ZM66.2194 31.7726H62.4236V26.071H66.2194C68.2569 26.071 69.4806 26.9496 69.4806 28.8243C69.4857 30.8599 68.3019 31.7726 66.2194 31.7726Z" fill="#CF1322"/>
<path d="M94.5647 13.7546V5.42163H88.6914V13.7546C81.9589 14.3111 77.4341 18.978 77.4341 25.4755C77.4341 32.012 81.9639 36.6789 88.6914 37.2354V45.6856H94.5647V37.2354C101.297 36.7179 105.822 32.012 105.822 25.4755C105.822 18.939 101.292 14.2721 94.5647 13.7546ZM88.6914 31.8167C85.4301 31.3774 83.3873 28.9853 83.3873 25.4755C83.3873 21.9656 85.425 19.5736 88.6914 19.1342V31.8167ZM94.5647 31.8167V19.1391C97.8262 19.5784 99.8688 21.9704 99.8688 25.4804C99.8688 28.9853 97.8262 31.3774 94.5647 31.8167Z" fill="#CF1322"/>
<path d="M127.922 29.8203V22.283C127.922 16.7814 124.332 13.3105 118.298 13.3105C112.055 13.3105 108.754 16.9767 108.469 20.8039H114.423C114.627 19.9643 115.526 18.529 118.298 18.529C120.581 18.529 122.049 19.564 122.049 22.2782H116.216C110.996 22.2782 107.895 24.9484 107.895 29.4152C107.895 34.0819 111.286 37.2697 116.176 37.2697C119.762 37.2697 121.749 35.6149 122.618 34.3603C123.393 35.8736 125.106 36.7132 127.348 36.7132H129.386V31.5289C128.327 31.5338 127.922 31.0554 127.922 29.8203ZM122.044 28.3461C122.044 30.9382 120.166 32.4124 117.719 32.4124C115.596 32.4124 113.923 31.6558 113.923 29.4199C113.923 27.2281 115.756 26.867 117.349 26.867H122.039V28.3461H122.044Z" fill="#CF1322"/>
<path d="M21.7427 9.71766C20.8486 7.10595 19.8148 5.0459 16.2788 5.0459C12.7428 5.0459 11.644 7.10108 10.7001 9.71766C0.980969 36.7181 0.980957 36.7181 0.980957 36.7181H7.42374L9.66623 30.2987H22.0672L24.15 36.7181H31.0023C31.0023 36.7181 31.0023 36.7181 21.7427 9.71766ZM11.5441 24.8801L15.9492 12.0804H16.114L20.2744 24.8801H11.5441Z" fill="#CF1322"/>
<path d="M31.6933 45.3928H0.293457V51.7684H31.6933V45.3928Z" fill="#CF1322"/>
<path d="M265.622 24.958L275.537 14.272H268.155L260.035 23.1615V14.272H254.161V36.7179H260.035V27.2718L268.724 36.7179H276.31L265.622 24.958Z" fill="#CF1322"/>
<path d="M240.89 37.382C234.112 37.382 229.563 32.5735 229.563 25.4123C229.563 18.2557 233.938 13.4424 240.45 13.4424C247.012 13.4424 251.253 18.1239 251.253 25.3682V26.5935H235.776C236.05 29.9912 237.993 32.0855 240.89 32.0855C243.886 32.0855 245.08 29.9375 245.08 29.9375C245.08 29.9375 249.53 29.9375 251.043 29.9375C250.693 32.759 248.117 37.382 240.89 37.382ZM244.96 22.5467C244.646 20.7942 243.551 18.3484 240.45 18.3484C237.773 18.3484 236.325 20.0668 235.85 22.5467H244.96Z" fill="#CF1322"/>
<path d="M285.288 37.3822C278.931 37.3822 274.426 32.2418 274.426 25.305C274.426 18.3682 278.916 13.4329 285.245 13.4329C292.986 13.4329 295.099 19.1346 295.333 21.3314L295.343 21.429H289.555L289.529 21.3753C289.179 20.5454 288.25 18.6172 285.373 18.6172C282.423 18.6172 280.545 21.2435 280.545 25.3001C280.545 29.2982 282.487 32.193 285.419 32.193C287.456 32.193 288.765 31.2362 289.574 29.4349L289.599 29.3812H295.337L295.328 29.4789C295.123 31.6806 293.065 37.3822 285.288 37.3822Z" fill="#CF1322"/>
<path d="M217.879 13.4329C213.903 13.4329 212.146 15.9616 211.492 17.0258V14.2774H205.598V45.7592H211.492V34.1213C212.341 35.3759 214.189 37.3921 217.879 37.3921C223.693 37.3921 227.229 32.6958 227.229 25.7053C227.229 18.6758 223.693 13.4329 217.879 13.4329ZM221.154 25.4026C221.154 29.3422 219.428 32.2761 216.311 32.2761C213.194 32.2761 211.401 29.3373 211.401 25.4026C211.401 21.4046 213.145 18.583 216.311 18.583C219.477 18.583 221.154 21.3997 221.154 25.4026Z" fill="#CF1322"/>
<path d="M191.743 13.4229C184.741 13.4229 180.536 18.3582 180.536 25.5245C180.536 32.6907 184.786 37.3869 191.743 37.3869C198.7 37.3869 202.951 32.6907 202.951 25.5245C202.951 18.3582 198.741 13.4229 191.743 13.4229ZM191.743 32.1391C188.681 32.1391 186.564 29.6154 186.564 25.5196C186.564 21.297 188.537 18.6609 191.743 18.6609C194.949 18.6609 196.918 21.3018 196.918 25.5196C196.918 29.6154 194.8 32.1391 191.743 32.1391Z" fill="#CF1322"/>
<path d="M165.345 26.3444H162.148V14.0329H165.345C170.424 14.0329 172.597 16.7373 172.597 20.2863C172.601 23.5717 170.224 26.3444 165.345 26.3444ZM162.148 36.718V31.8851H165.744C174.449 31.8851 178.999 26.4713 178.999 20.091C178.999 13.7107 174.185 8.55568 165.744 8.55568H162.148V4.49414H155.82V8.55568H152.224C143.784 8.55568 138.969 13.7107 138.969 20.091C138.969 26.4713 143.519 31.8851 152.224 31.8851H155.82V36.718H162.148ZM152.619 26.3444C147.739 26.3444 145.367 23.5717 145.367 20.2863C145.367 16.7422 147.545 14.0329 152.619 14.0329H155.815V26.3444H152.619Z" fill="#CF1322"/>
</g>
<defs>
<clipPath id="clip0_721_52117">
<rect width="295.049" height="52.1634" fill="white" transform="translate(0.418457)"/>
</clipPath>
</defs>
</svg>
