<svg width="293" height="44" viewBox="0 0 293 44" fill="none" xmlns="http://www.w3.org/2000/svg">
<g clip-path="url(#clip0_721_52133)">
<path fill-rule="evenodd" clip-rule="evenodd" d="M50.6822 42.4059C51.7236 43.0031 52.2537 43.3113 52.6703 43.2728C52.8566 43.2559 53.0372 43.1991 53.2004 43.1062C53.3636 43.0132 53.5056 42.8861 53.617 42.7334C53.8632 42.3866 53.8632 41.7701 53.8632 40.5757V3.5871C53.8632 2.39267 53.8632 1.7762 53.617 1.42943C53.5037 1.2802 53.361 1.15681 53.1979 1.06721C53.0348 0.97762 52.8551 0.923816 52.6703 0.909277C52.2537 0.851482 51.7236 1.15972 50.6822 1.75693L28.415 14.8571C28.0363 15.0497 27.847 15.1846 27.6387 15.2231C27.4494 15.2616 27.26 15.2616 27.0707 15.2231C26.8813 15.1846 26.692 15.069 26.3133 14.8378L4.00828 1.73767C2.98581 1.17899 2.45564 0.870747 2.03907 0.890012C1.8528 0.90688 1.67214 0.963665 1.50897 1.05663C1.3458 1.1496 1.20381 1.27665 1.09234 1.42943C0.846191 1.7762 0.846191 2.39267 0.846191 3.5871V11.871C0.846191 12.3334 0.846191 12.5453 0.92193 12.7572C0.978734 12.9306 1.07341 13.0847 1.18701 13.2195C1.31956 13.3737 1.52784 13.4893 1.90653 13.7204L26.2943 28.0343C26.673 28.2654 26.8813 28.3618 27.0896 28.4195C27.2789 28.4581 27.4683 28.4581 27.6387 28.4195C27.8281 28.3618 28.0363 28.2654 28.434 28.0343L41.2338 20.5209C41.6503 20.2898 41.8586 20.1742 42.029 20.1934C42.1805 20.1934 42.3131 20.2898 42.4077 20.4054C42.5024 20.5402 42.5024 20.7906 42.5024 21.2723V36.3374C42.5024 36.7805 42.5024 36.9924 42.5781 37.2043C42.6349 37.3777 42.7296 37.5318 42.8432 37.6667C42.9947 37.8208 43.184 37.9364 43.5627 38.1676L50.6822 42.4059ZM17.6412 34.4109C18.6826 33.8137 19.2128 33.5055 19.3832 33.1202C19.4597 32.951 19.4993 32.767 19.4993 32.5808C19.4993 32.3945 19.4597 32.2105 19.3832 32.0413C19.1939 31.656 18.6826 31.3671 17.6412 30.7506L10.6354 26.5509C10.2378 26.3389 10.0295 26.2233 9.84015 26.1656C9.65296 26.1244 9.45929 26.1244 9.27211 26.1656C9.08276 26.2233 8.89341 26.3389 8.49579 26.5509L1.90653 30.4038C1.52784 30.635 1.33849 30.7506 1.18701 30.9047C1.05923 31.0425 0.962332 31.2068 0.902995 31.3863C0.846191 31.579 0.846191 31.7909 0.846191 32.234V40.595C0.846191 41.7894 0.846191 42.3866 1.09234 42.7334C1.31956 43.0416 1.66038 43.2343 2.03907 43.2728C2.45564 43.3113 2.98581 43.0223 4.02721 42.4059L17.6602 34.4109H17.6412Z" fill="#8A24F3"/>
<path d="M96.0872 10.9854L90.7855 26.6477L85.4838 10.9854H76.5845V33.1785H82.3406V16.1291L88.324 33.1785H93.247L99.2492 16.1291V33.1785H104.986V10.9854H96.0872ZM132.517 10.9854H111.424V15.4933H119.074V33.1785H124.83V15.4933H132.498V10.9854H132.517ZM155.277 33.1785H161.582L156.848 25.0873C159.405 24.0277 160.881 21.8893 160.881 18.4794C160.881 13.9329 157.852 10.9854 152.247 10.9854H138.974V33.1785H144.73V25.9542H151.168L155.277 33.1785ZM144.73 15.4933H152.058C154.709 15.4933 155.05 17.4198 155.05 18.4794C155.05 19.5197 154.69 21.4847 152.058 21.4847H144.749V15.4933H144.73ZM185.497 33.1785H191.556L182.183 10.9854H175.366L165.994 33.1785H172.053L173.606 29.1329H183.944L185.478 33.1785H185.497ZM175.348 24.6249L178.794 15.686L182.24 24.6249H175.348ZM206.855 10.9854H197.122V33.1785H206.855C213.16 33.1785 219.617 31.4061 219.617 22.0819C219.617 12.7385 213.179 10.9854 206.855 10.9854ZM206.4 28.6898H202.897V15.4933H206.4C210.471 15.4933 213.747 16.341 213.747 22.0819C213.747 27.8036 210.471 28.6898 206.4 28.6898ZM226.073 10.9854V33.1785H231.83V10.9854H226.073ZM255.574 10.9854V25.7615L245.311 10.9854H239.157V33.1785H244.913V18.4216L255.176 33.1978H261.33V10.9854H255.574ZM292.345 21.2728H281.211V25.1065H287.081C286.494 27.4183 284.013 28.5742 280.605 28.5742C276.175 28.5742 273.031 26.4551 273.031 22.0819C273.031 17.7088 275.777 15.4355 280.094 15.4355C282.972 15.4355 285.112 16.2832 285.964 18.3831H291.89C290.565 12.9311 285.377 10.9854 280.113 10.9854C274.281 10.9854 267.862 13.5861 267.862 22.0819C267.862 30.5585 274.13 33.1785 280.605 33.1785C287.781 33.1785 293.235 30.4622 292.345 21.2728Z" fill="#171E27"/>
</g>
<defs>
<clipPath id="clip0_721_52133">
<rect width="291.593" height="42.3828" fill="white" transform="translate(0.846191 0.890381)"/>
</clipPath>
</defs>
</svg>
